/* XPM */
static char *_b9b30be9e494d0defe90da04488598eNxivZEKlkMRqpdtW[] = {
/* columns rows colors chars-per-pixel */
"50 50 160 2 ",
"   c None",
".  c #000001",
"X  c #000209",
"o  c #3B3C0C",
"O  c #543A36",
"+  c #5B5C07",
"@  c #71564E",
"#  c #77584E",
"$  c #827D00",
"%  c #948D0A",
"&  c #9D9406",
"*  c #9F9609",
"=  c #A49B04",
"-  c #A89E01",
";  c #A49C09",
":  c #A99F08",
">  c #ADA302",
",  c #ACAB00",
"<  c #A9A00B",
"1  c #B1A601",
"2  c #B6AA01",
"3  c #BAAD00",
"4  c #B1A409",
"5  c #BBA70D",
"6  c #B6AB0B",
"7  c #BEB200",
"8  c #BEB009",
"9  c #BFBF0D",
"0  c #B6B515",
"q  c #B6B51D",
"w  c #BDBD1A",
"e  c #BAB825",
"r  c #B4B52B",
"t  c #BEBF3C",
"y  c #C2B500",
"u  c #C6BA01",
"i  c #C9BC00",
"p  c #C2B808",
"a  c #D0B700",
"s  c #CEC100",
"d  c #CDC20C",
"f  c #D2C500",
"g  c #DCC703",
"h  c #D6C901",
"j  c #DBCD00",
"k  c #D1C309",
"l  c #D7C90B",
"z  c #D1D000",
"x  c #DDD100",
"c  c #D9D805",
"v  c #D6D517",
"b  c #D9D81B",
"n  c #E2D400",
"m  c #E8D701",
"M  c #E5D901",
"N  c #EBDC00",
"B  c #E2D40F",
"V  c #E7D80B",
"C  c #EADD0C",
"Z  c #F0DC00",
"A  c #EEE204",
"S  c #EBEB00",
"D  c #E7E50D",
"F  c #EDE109",
"G  c #F3E400",
"H  c #F8E700",
"J  c #F7E901",
"K  c #FBEC01",
"L  c #F0E308",
"P  c #F7EC0B",
"I  c #FCED0C",
"U  c #FEF401",
"Y  c #FFFC01",
"T  c #FFFD0B",
"R  c #EAE917",
"E  c #E8E71A",
"W  c #EFEE1D",
"Q  c #FBEC15",
"!  c #FDEF18",
"~  c #FFFD13",
"^  c #FEF61D",
"/  c #FFFD1C",
"(  c #C0C02C",
")  c #C8C72D",
"_  c #D1D023",
"`  c #D5D428",
"'  c #CCCC37",
"]  c #C4C43B",
"[  c #C8C739",
"{  c #ECDE33",
"}  c #FCEF29",
"|  c #F4F321",
" . c #FFF724",
".. c #FEFD24",
"X. c #FFFD2B",
"o. c #FDED39",
"O. c #FEFC34",
"+. c #FFF63A",
"@. c #FFFD3C",
"#. c #8B8942",
"$. c #ACAA5B",
"%. c #C1C341",
"&. c #C8C842",
"*. c #C8C952",
"=. c #FDF547",
"-. c #FFFD43",
";. c #FEF64F",
":. c #FEFC4B",
">. c #F6F652",
",. c #FFFD53",
"<. c #FEFC5B",
"1. c #E2E26C",
"2. c #FFF763",
"3. c #FEFD63",
"4. c #FEFC6B",
"5. c #FFFC73",
"6. c #FFF77B",
"7. c #FFFB78",
"8. c #FFFF7B",
"9. c #FFFE7A",
"0. c #FFF87E",
"q. c #FFFB7F",
"w. c #FFFF7E",
"e. c #FEFD7D",
"r. c #FEFE7A",
"t. c #9D9584",
"y. c #9E948B",
"u. c #978C90",
"i. c #A39A92",
"p. c #ABA0A9",
"a. c #BAB6AF",
"s. c #C4BAB5",
"d. c #FAFA81",
"f. c #FFF980",
"g. c #FFFA82",
"h. c #FEFF80",
"j. c #FFFD82",
"k. c #FFFD84",
"l. c #FFFE84",
"z. c #FFFF84",
"x. c #FEFB89",
"c. c #FFFC88",
"v. c #FFFE89",
"b. c #FEFC8B",
"n. c #FFFF8A",
"m. c #FDFD8C",
"M. c #FFFF8D",
"N. c #FFFD8E",
"B. c #FFFE8F",
"V. c #FFFD90",
"C. c #FFFE91",
"Z. c #FFFE90",
"A. c #FFFE93",
"S. c #FEFD92",
"D. c #FFFF94",
"F. c #FFFF96",
"G. c #D5CCC5",
"H. c #D1CCCA",
"J. c #D6D3D0",
"K. c #E8E5E5",
/* pixels */
"                                                                                                    ",
"                                                                                                    ",
"                                                                                                    ",
"                                                =.{                                                 ",
"                                                3.o.                                                ",
"                                               .4.@.a                                               ",
"                                              -.6.-.Z                                               ",
"                                            K <.6.;.K 5                                             ",
"                                            ~ 2.0.;.U g                                             ",
"                                          K O.5.0.<.~ G 4                                           ",
"                                        Q Y ;.0.f.2.X.K h                                           ",
"                                        K  .2.g.f.3.@.U m 4                                         ",
"                                      I Y +.4.x.f.4.@.T Z f                                         ",
"                                      U ^ ;.f.B.k.4.-.~ J x >                                       ",
"                                    I Y +.4.c.Z.k.4.:...U N f                                       ",
"                                    U  .<.e.B.B.z.5.,.O.T J n 6                                     ",
"                                  U / ;.7.v.Z.B.e.5.<.-...Y G n p                                   ",
"                        I K K I ..X.:.5.x.Z.F.B.r.5.<.:.O./ U J J J N V V B                         ",
"            Q Q Q Q ....X.O.@.;.<.4.7.x.Z.Z.Z.k.r.4.3.,.-.@...T Y Y Y Y Y Y Y U L F F D             ",
"    ^ O.-.:.,.,.,.<.<.2.4.5.7.e.f.B.Z.Z.F.F.c.z.7.4.3.,.,.-.O.X.../ / / / ~ T T Y Y Y Y Y U L l     ",
"    N Y ..+.-.;.2.2.5.7.e.x.c.B.Z.Z.Z.Z.$.#.d.e.5.4.<.>.+ r :.@.X.X......./ ~ Y Y U U H Z m j 6     ",
"      j Y Y T  .@.-.<.4.r.k.c.Z.Z.m.c.1.y.u.*.e.4.4.3.w a.$.S @.O.O.X.X./ ~ Y U U K Z n h i <       ",
"        k K U Y Y ..O.;.<.4.5.r.e.7.z.[ H.J.q e.3.<.3.2 K.a.c -.O.X... .~ Y U K G m h y y ;         ",
"          i G K Y Y T X.@.,.<.3.4.4.5.( s.s.0 4.<.,.,., G.i.z @.....~ Y Y U J m j i y y :           ",
"            p N G U Y Y ~ O.-.:.,.<.3.%.@ @ %.<.>.:.:.r @ O v ..~ T Y U H N n f u 7 3 ;             ",
"              i M N J U Y T ..O.-.:.:.&.. . ] :.-.-.-.r . . b T Y U K G N x f y 3 3 ;               ",
"                p n M G U Y Y / X.@.@.' . X ) O.O.X.X.q X X c Y K K G m j s y 2 3 =                 ",
"                  p n M G U Y Y ~ ..X.` . . _ ../ / ~ 9 . X M Y H G N n a y 2 2 ;                   ",
"                    p n N J U Y Y T / | o X W / ~ T T D X + U K G N m h y 2 2 ;                     ",
"                      p m S U Y Y Y Y ~ R E ~ T Y Y Y Y D A U J A m x u 3 2 ;                       ",
"                        h G U U Y Y Y Y Y T T Y Y Y Y Y Y U H G N m h y 2 &                         ",
"                        B Y U Y Y Y Y Y Y Y Y Y Y Y U U K K H G m n f y 2                           ",
"                        L Y Y Y Y Y Y Y Y Y Y U U K U K J H G Z m j f y 3                           ",
"                        P Y U Y Y Y Y Y Y U U K J J J H J G Z N m j s y 3 %                         ",
"                        K Y Y Y Y Y Y U U K K J N N Z G N G N M m j f y 3 %                         ",
"                        U Y Y Y Y Y Y U J G N M m x n n n M m m x j f u 3 =                         ",
"                        Y Y Y Y Y Y K J N n j j h h h h j j c x j j f u y =                         ",
"                        Y Y Y Y U J A n j s s u u y u i s s f j j h h i y -                         ",
"                      P Y Y U U G A x f u 7 3 3 > 1 3 7 7 y s s i f i i y 2                         ",
"                      P Y U U G M j s y 7 1 - > > 1 1 > 3 7 7 7 y u i u y y                         ",
"                      K Y U G M h i 7 1 - - - ;     < 1 > > 3 7 y y y y u y *                       ",
"                      T Y G n f u 3 > - > =             > > > > 3 3 3 y y u -                       ",
"                      U J x s y 1 > = ;                     < > 1 1 3 3 3 u 1                       ",
"                      Y M s 7 1 = &                             ; > 1 2 3 y 6                       ",
"                      K s 7 > &                                     = 1 2 2 7                       ",
"                    F A > *                                             = 1 u                       ",
"                    d >                                                     =                       ",
"                                                                                                    ",
"                                                                                                    ",
"                                                                                                    "
};
