/* XPM */
static char *_8c73e0d8e0b4816cda524c29409e582bR2qzTSCOMihVC84[] = {
/* columns rows colors chars-per-pixel */
"50 50 249 2 ",
"   c #180500",
".  c #240100",
"X  c #2C0100",
"o  c #2A0C00",
"O  c #330302",
"+  c #360A05",
"@  c #301302",
"#  c #3F2514",
"$  c #410F06",
"%  c #761806",
"&  c #7F0702",
"*  c #552611",
"=  c #6E2812",
"-  c #7E3A2A",
";  c #7A4A37",
":  c #7F4513",
">  c #7D5B51",
",  c #766C54",
"<  c #7A6868",
"1  c #756C74",
"2  c #777677",
"3  c #76746A",
"4  c #676358",
"5  c #881801",
"6  c #911909",
"7  c #893B18",
"8  c #9B3B1B",
"9  c #973A18",
"0  c #902A12",
"q  c #A43B1A",
"w  c #AC2E1B",
"e  c #8B3A27",
"r  c #993A25",
"t  c #993E31",
"y  c #883E3B",
"u  c #A73C24",
"i  c #B23D26",
"p  c #AB3F34",
"a  c #B43F36",
"s  c #C53D2F",
"d  c #8C451A",
"f  c #984618",
"g  c #A8441D",
"h  c #B5461D",
"j  c #8B4328",
"k  c #984527",
"l  c #994736",
"z  c #9B543C",
"x  c #8F4C33",
"c  c #A44323",
"v  c #AB4225",
"b  c #A9472A",
"n  c #B64829",
"m  c #A7582D",
"M  c #B8552A",
"N  c #A44A34",
"B  c #A84637",
"V  c #B34B33",
"C  c #BB4C33",
"Z  c #B74A39",
"A  c #AB5636",
"S  c #B35335",
"D  c #BD5332",
"F  c #B75738",
"G  c #B96239",
"H  c #A76333",
"J  c #9B6833",
"K  c #C7492A",
"L  c #D44B2C",
"P  c #DA4B2D",
"I  c #CC542C",
"U  c #C75729",
"Y  c #D3522C",
"T  c #D6582A",
"R  c #C34D34",
"E  c #CC4D34",
"W  c #C74A37",
"Q  c #D24C35",
"!  c #DB4D32",
"~  c #D74B39",
"^  c #C45334",
"/  c #CB5333",
"(  c #C4543B",
")  c #CB533B",
"_  c #CB5B3B",
"`  c #C65A37",
"'  c #D35234",
"]  c #DB5433",
"[  c #D3533B",
"{  c #D35C3B",
"}  c #D95A38",
"|  c #E24D34",
" . c #E55838",
".. c #E34E2E",
"X. c #D5642B",
"o. c #C96639",
"O. c #D76738",
"+. c #CF6F37",
"@. c #E4643B",
"#. c #EB773A",
"$. c #9A5549",
"%. c #855958",
"&. c #975B57",
"*. c #875B4B",
"=. c #A64A45",
"-. c #A85745",
";. c #B55845",
":. c #A75556",
">. c #AC4E4B",
",. c #896759",
"<. c #986659",
"1. c #8A7757",
"2. c #916B50",
"3. c #AA6343",
"4. c #B66748",
"5. c #A86659",
"6. c #B86955",
"7. c #A5755B",
"8. c #B5775B",
"9. c #B17148",
"0. c #8C5A68",
"q. c #965A66",
"w. c #A55D63",
"e. c #886965",
"r. c #976A67",
"t. c #88756B",
"y. c #957666",
"u. c #876872",
"i. c #877779",
"p. c #987876",
"a. c #966E77",
"s. c #A96867",
"d. c #AA7867",
"f. c #B97967",
"g. c #A57A78",
"h. c #B77876",
"j. c #B46C66",
"k. c #C55A42",
"l. c #CA5743",
"z. c #D75843",
"x. c #CE5144",
"c. c #E35A43",
"v. c #E04C40",
"b. c #C76749",
"n. c #D76847",
"m. c #CA7446",
"M. c #D67349",
"N. c #C76B54",
"B. c #C77558",
"V. c #D67656",
"C. c #D36C54",
"Z. c #E56946",
"A. c #EB7750",
"S. c #C67969",
"D. c #D57B65",
"F. c #C57773",
"G. c #D57C75",
"H. c #CA6E66",
"J. c #E67B62",
"K. c #7D8277",
"L. c #958578",
"P. c #908774",
"I. c #B7836B",
"U. c #B98678",
"Y. c #AC8D76",
"T. c #AEA17B",
"R. c #9F845D",
"E. c #D9885C",
"W. c #D08955",
"Q. c #EA8457",
"!. c #CB8568",
"~. c #D88767",
"^. c #D6926B",
"/. c #C68678",
"(. c #D68774",
"). c #CB9674",
"_. c #E38765",
"`. c #E69C77",
"'. c #F89E72",
"]. c #EB8A6F",
"[. c #DCA37B",
"{. c #CEA07E",
"}. c #E7A57A",
"|. c #7C7782",
" X c #8F7A86",
".X c #A77C89",
"XX c #7C8586",
"oX c #9A8787",
"OX c #978A96",
"+X c #8E9094",
"@X c #A88A8A",
"#X c #BA8A85",
"$X c #A78694",
"%X c #AB9999",
"&X c #B89898",
"*X c #B3968B",
"=X c #ABA49A",
"-X c #B7A697",
";X c #B4AA8A",
":X c #979AA3",
">X c #A69AA5",
",X c #B99AA4",
"<X c #9FA1A9",
"1X c #A9A8A9",
"2X c #B9A2A5",
"3X c #AEACB3",
"4X c #C68986",
"5X c #CB9786",
"6X c #C39698",
"7X c #D2948B",
"8X c #EA9884",
"9X c #C5A686",
"0X c #DBBB85",
"qX c #D9B998",
"wX c #D1AF94",
"eX c #E9AA87",
"rX c #ECBB8C",
"tX c #E6BA88",
"yX c #E8BA96",
"uX c #F5B897",
"iX c #F2B18C",
"pX c #CCB3A5",
"aX c #E9BDA3",
"sX c #FABCA4",
"dX c #DAC489",
"fX c #DBC896",
"gX c #D0C598",
"hX c #E4C38D",
"jX c #E4CA9B",
"kX c #E7C799",
"lX c #F3C49C",
"zX c #E9CD96",
"xX c #D8C9A6",
"cX c #D8CEAF",
"vX c #E8C9A6",
"bX c #F6C8A7",
"nX c #E8D6A5",
"mX c #FBD5AB",
"MX c #FCCBB2",
"NX c #EBD9B6",
"BX c #FAD7B7",
"VX c #FAE3BB",
"CX c #E9E2BC",
"ZX c #FDDDC4",
"AX c #EBDBC9",
"SX c #FDE5C6",
"DX c #FBE8D5",
"FX c #EDEACA",
"GX c #FFF2EA",
/* pixels */
"Q.+.@.@. .` M J : W.E.M.M.O.O.{ [ s q C.Q.M.A. . . .U F f b.]._.M.O.O.O.n G d J ).W.W.o.n.O.U U n p ",
"Q.@.@.@. .o.m m d E.~.n.Z.O.{ { [ K q M.Q.M.Z.@. .@.U D 8 b.].V.O.Z.O.} U M k H ^.W.m.+.Z.} U U n i ",
"A.@. .c. .[ ` A 9 ~.J.Z.Z.c.| } ) C 8 B._.m.n.} } O.D G d 4.(.V.n. . . .E ( k A ^.V.n.c.c. .P Y n h ",
"#.@... .| Q ( V r J.J.z.c. .! ~ ( b j B.^.o.n.{ T } M A d 9.^.b.n. .| | E ) q A ].V.n.c.| | T Y h g ",
"A.T ....! s C b f D.J.[ ] Q L / F B e B.^.G _ } L ' n M 7 9.~.G { T L ! K ^ 9 H ~.b._ } ! L Y h v f ",
"O.T Y P L K n k k E.M.E Q I Y { Z l e 8.~.F ) [ L / n b 7 4.E.G o.Y L ' K V 7 A ~.4.( / L L Y h g g ",
"+.U Y Y L C b f j W.M.C / / } n.Z p e B.~.Z [ ~ ~ ~ K b 9 m.~.F U U I ' v n 7 A ^.G F _ K I I g g c ",
"o.M ^ ) ^ D A x j !.B.S F _ C.V.>.B e S.D.A x.v.v.v.n v 7 9.~.M F D ^ ( n b 7 -.^.H A _ R / ` 8 c v ",
"3.A b a a =.y y - 4XF.=.=.l.H.>.=.l = 8.S.e Z w w i 9 c = H ^.k A N p p p y - q.F.w.=.p p Z B k r r ",
"d.5.>.:.:.w.q.%.> .X.Xw.w.j.j.$.-.$.<.9X{.f.B.N.J.l.9.!.9.I.[.9.5.$.:.:.:.&.>  X&X.Xq.:.:.:.$.$.-.-.",
"e.e.0.q.a.0.< 1 |.:X.Xa..X.Xa.%.*.; qXVXVXDXBXZXMXMXSXVXVXVXVX{.%.%.q.0.0.0.1 |.OX X X0.0.q.e.< e.,.",
"oXoX.X.X.X.X X:X X<XOX.X,X%XoXoXU.<.BXCXcXNXbXMXBXMXBXvXnXNXVX9XL.@X$X.X.X>X X:X:XOXOX$X.X.X@X$XOXOX",
"-X;X&X6X6X6X&X1X+X3X=X2XpX&X*X-XwXI.NXcXxXxXNXmXbXvXxXxXCXgXxXqX;X-X6X&X&X,X:X=X1X=X%X&X6X&X&X-X1X>X",
"T.Y.f.f.f.d.y.1., %X*X4X5Xh.d.I.8.$.qXVXFX;X;XT.wXBXqXT.;X0XMXqX7.I.!.j.d.d.1.y.*X@XU.U.f.8.7.7.y.r.",
"W.m.o.O.{ ( A z e B.~.C.n.k.G S =.t eXBXNX; + . d.SX1.X . 2.MX(.4.o.n.^ D V k z ^.~.N.n.O._ M M g q ",
"#.#. . . .} / C 9 Q._.Z.O.@.@.{ ~ r uXZXSX*.+ + r.GXy.+ X 5.BXeXO.@. . .] K g M _.M.Z.c.@...T U h h ",
"A. . . .] Q W n q J.J.n.n.] P ] v.6 uXMXZX,.O O  XGXe.@ . 7.bX`.O.......L / 8 A _.M.{  .....P Y i u ",
"A.} } [ Q W W C q J.V.o.{ / L ! K 5 iXMXSX,.+ +  XGXt.* @ 7.bX`._ ] !  .K R f A ^.M.l.z.! P L K i v ",
"Z.' ` ) ( Z V b r ~.V.F ^ R K / E 5 uXBXBX> O O @XGXy.@ . 7.bX}.M R W [ C C 7 3.(.6.( l.[ E K v g g ",
"_ ^ ^ _ ( C N r k D.B.F F D / _ i % rXVXBX2.$ + r.DXP.@ X 8.mX^.A ^ ) ) a B e -.(.4.;.l.l.) D v g f ",
"O.U ^ ` ( D N c k ~.B.F G U I ` n % dXVXxX> O X #XBX1.o . z lX[.m ` ) x.a Z r -.^.6.;.W x.W S c g c ",
"o.D n C V V A N j V.B.m S b n n c = qXFXNXfX7XeXqXBXfXqX0XyXbXeXN A F l.p B e -.G.6.Z ;.Z Z c r N N ",
"N.A N N B =.:.$.x /.8.z z N N N -.= wXcXgXvXbXZXyXnXvXbXbXlXzX{.x $.>.>.=.=.y s./.w.>.>.=.=.l x :.:.",
"d.<.&.&.&.r.r.u.> &XL.,.&.2.&.:.:.; NXFXcXvXqXaXaXMXfXqXyXbXMX9X*.<.<.s.q.s.%.p.&Xs.q.w.:.<.r.,.r.a.",
"p.i.i.p.i.|.|.|.XX+XXXXXK.2 p.p.s.s.xXcXDXy.* * I.DXY.* * 7.vXwX3 K.i.i.i.oX2 +X+X+X X Xi.i.K.K.K.2 ",
"-X%X,X2X,X2X3X3X<X3X1X1X1X%X-X6X7X#XAXDXDXe.O O d.DXy..   <.vXwX;X=X-X&X,X2X:X3X1X>X%X,X-X=X;X=X=X=X",
"8XG.G.G.F.F.h.h.s.7X5X/./.S.G.H.G.s.cXAXDXe.$ $ p.DXY.@ O d.MXwXI.S.D.H.S.F.s.h.6X7XG.G.G.D.!.I.F.h.",
"J.n.z.C.x.;.Z B j D.!.m.b.z.z.( a y wXAXDXe.O X g.DXt.o . r.aXeXb.b.n./ ) Z k A ^.V.C.n.z.( h M u r ",
"Q.+.X.+.` ` G M f W.Q.+.+.+.X.T x.e yXZXDXt.+ O p.GXL.@ X 7.bX[.+.+.+.U U M f m ^.W.+.+.O.T U M M B ",
"#.X.X.X.U U M M 7 E.W.X.+.X.X.U z.9 yXBXNX,.O + p.GXL.  . d.bX[.o.X.X.T U M d H W.W.+.O.@.X.U U g q ",
"#.T { } / ^ M c 8 _.V.F +.{ I Y s 5 uXBXZX,.. . L.DX,   . 2.tX[._ ' [ ~ U F l H !.B.k.) ~ Q K n v v ",
"Z./ / ) R C D v r _.V.F n.` K ' ! 5 eXmXVX9X1.*X*XDX;XY.Y.{.yXeXb.W v.W ) D e -.(.B.l.x.x.~ E E u v ",
"M.M ^ K C ( n v c ~.N.S F ^ R [ ~ & sXbXkXjXnXnXfXnXzXjXvXnXuXeX^ C ' Q W p r ;.(.4.Z ) x.[ D q u p ",
"n.D ` ` R ^ u q 8 E.m.S o.F D x.a & sXMXjXjXfXfXnXdX0XhXdXT.5X8XD n [ E s i r ;.G.k.k.W W R M g c u ",
"n.C ^ R K C u u u ~.C.A k.k.( W a % qXNXjXfXjXkXzXyXyXkXT., 7.[.S C ) W Z i t ;._.C.l.) K K C g v h ",
"4.N B N t l l l j S.j.z =.A =.t =.= qXCXvXvXjXjXyXbXbXyXT.R.P.T.x c B p p l e &./.5.>.>.B N k j j r ",
"Y.,.,.,.%.r.0.< e.=XoXe.< e.r.%.&.; qXCXvXvXvXsXbXuXaXwX*XP.P.T.1.,.r.&.r.e.4 P.=Xp.e.r.0.e.,., e.u.",
"t.< 1 u.< i.1 1 2 +XXX2 3 < i.e.g.,.xXCXcXvXbXaXMXsXsXaXT.4 4 ;X3 < u.0.u.u.2 XX+X2 1 u.e.t.t.3 2 |.",
",X@X&X,X%X,X>X>X:X3X>X>X>X%X,X6X4Xd.xXFXxXvXbXbXsXsXsXaXP., K.gX*X&X&X&X,X,X:X<X<X:X>X,X&X&X,X%X%X%X",
"wX4X4X4X#X6X#X&X$X&X$X&X6X4X7X4X4XU.xXNXxXvXbXbXuXuXuXyXgXgX0X{.).#X7X4X4X4X.X@X%X%X#X6X4X/.*XU.#XU.",
"_.C.b.b.;.;.-.l - !.(.8.N.b.k.;.;.- yXNXxXvXjXzXlXrXiXlXdXhXzX}.4.b.b._ B A j z ).!.N.b.b.;.A m k 9 ",
"Q.@.@.@.O._ _ S 9 ~.~.M.M.n.} ] x.0 yXBXjXzXzXnXlXrXlXrXtXhXrX'.+.@.}  .I ` f G ^.E.n.n.Z.T U U h g ",
"#.#.X.O._ ` ` M 9 E.V.+.+.O.] ] c.0 uXmXkXjXfXzXzXrXrXrX0XhXrX'.+.X.T X.K U f H E.W.+.O.X.X.U U n v ",
"#.T I T I U C v 9 E.V.o.o.T T P | 0 uXBXkXkXfXzXzX}.hXhX}.tXrX'.U T Y T K M f m E.m._ T Y U U M n v ",
"@...T } W ( Z a p J.V.k.[ [ ! L s 6 uXmXkXzXjXzXhX}.hXhX0XdX'.'.` ' ~ ~ W W r -.(.N.l.z.L Q E n v v ",
"@...' [ ( W ;.p t G.D.( ) [ ~ L s 5 iXMXkXnXjXzXhXhXrXhX0XdXrX'.U E ~ c.s Z r ;.(.N.l.x.E Q ' v v v ",
"X.Y I I ^ C S b r D.N.S ^ I L L s 5 rXBXlXvXjXvXrXrXrXhXdXdXtX}.n I [ z.n b 7 3.^.4.F x.K E U q b b ",
"O.U I ` ( F ;.N k !.B.m F ` ` / C % yXVXvXbXkXlXrXrXiXhXdXdXtX}.m ^ [ n.V b e 9.(.H F k.D _ ^ 9 Z -.",
"I n g u c k l l j S.6.m b r c u r 0 7XBXjXkXlXzXrXrXtXhXdX0XlX`.g u n u l k r -.!.3.N N c 8 u 9 N l ",
"b._ F F A -.A -.z (.S.3.;.A S V ;.y uXMXkXwXyXtXrXrX0XhX0XtXrX`.A S ;.A -.-.$.6.(.6.:.4.-.S F C F -."
};
