/* XPM */
static char *_7a020a9f9714a12b43b7e2031bace32RwRWt07cZueoqwsI[] = {
/* columns rows colors chars-per-pixel */
"50 50 216 2 ",
"   c black",
".  c #010101",
"X  c #020202",
"o  c gray1",
"O  c #040404",
"+  c gray2",
"@  c #070707",
"#  c gray3",
"$  c #090909",
"%  c gray4",
"&  c #0B0B0B",
"*  c #0C0C0C",
"=  c gray5",
"-  c #111111",
";  c gray7",
":  c gray8",
">  c gray9",
",  c #191919",
"<  c gray10",
"1  c #1B1B1B",
"2  c gray11",
"3  c #1D1D1D",
"4  c #1E1E1E",
"5  c gray12",
"6  c gray13",
"7  c #232323",
"8  c gray14",
"9  c #252525",
"0  c gray15",
"q  c #272727",
"w  c #282828",
"e  c gray16",
"r  c #2A2A2A",
"t  c gray17",
"y  c #2D2D2D",
"u  c gray18",
"i  c #2F2F2F",
"p  c gray19",
"a  c #323232",
"s  c #343434",
"d  c #353535",
"f  c #393939",
"g  c #3A3A3A",
"h  c gray23",
"j  c #3C3C3C",
"k  c gray24",
"l  c #3F3F3F",
"z  c gray25",
"x  c #414141",
"c  c gray26",
"v  c #434343",
"b  c #444444",
"n  c gray27",
"m  c #484848",
"M  c #494949",
"N  c gray29",
"B  c #4B4B4B",
"V  c #4C4C4C",
"C  c gray30",
"Z  c #4E4E4E",
"A  c gray31",
"S  c #505050",
"D  c #535353",
"F  c gray33",
"G  c #555555",
"H  c gray34",
"J  c #585858",
"K  c #5A5A5A",
"L  c #5B5B5B",
"P  c gray36",
"I  c #5D5D5D",
"U  c gray37",
"Y  c #5F5F5F",
"T  c #606060",
"R  c gray38",
"E  c #626262",
"W  c gray39",
"Q  c #646464",
"!  c #656565",
"~  c gray40",
"^  c #676767",
"/  c DimGray",
"(  c #6A6A6A",
")  c gray42",
"_  c #6D6D6D",
"`  c gray43",
"'  c #6F6F6F",
"]  c gray44",
"[  c #717171",
"{  c gray45",
"}  c gray46",
"|  c #767676",
" . c #777777",
".. c gray47",
"X. c #797979",
"o. c gray48",
"O. c #7C7C7C",
"+. c gray49",
"@. c #7E7E7E",
"#. c gray50",
"$. c #808080",
"%. c #818181",
"&. c gray51",
"*. c #838383",
"=. c #848484",
"-. c gray52",
";. c #868686",
":. c gray53",
">. c #888888",
",. c gray54",
"<. c #8B8B8B",
"1. c gray55",
"2. c #8D8D8D",
"3. c #8E8E8E",
"4. c gray56",
"5. c gray57",
"6. c #929292",
"7. c #939393",
"8. c gray58",
"9. c #959595",
"0. c gray59",
"q. c #989898",
"w. c gray60",
"e. c #9A9A9A",
"r. c #9B9B9B",
"t. c gray61",
"y. c #9D9D9D",
"u. c #9F9F9F",
"i. c #A0A0A0",
"p. c #A2A2A2",
"a. c gray64",
"s. c #A4A4A4",
"d. c #A5A5A5",
"f. c gray66",
"g. c #A9A9A9",
"h. c #AAAAAA",
"j. c #ACACAC",
"k. c gray68",
"l. c #AEAEAE",
"z. c #AFAFAF",
"x. c gray69",
"c. c #B2B2B2",
"v. c gray70",
"b. c #B4B4B4",
"n. c gray71",
"m. c #B6B6B6",
"M. c #B7B7B7",
"N. c gray72",
"B. c #B9B9B9",
"V. c gray73",
"C. c #BBBBBB",
"Z. c #BCBCBC",
"A. c gray74",
"S. c gray",
"D. c #C0C0C0",
"F. c #C1C1C1",
"G. c gray76",
"H. c #C3C3C3",
"J. c #C6C6C6",
"K. c gray78",
"L. c #C8C8C8",
"P. c gray79",
"I. c #CACACA",
"U. c #CBCBCB",
"Y. c gray80",
"T. c #CDCDCD",
"R. c #CECECE",
"E. c gray81",
"W. c #D0D0D0",
"Q. c gray82",
"!. c #D2D2D2",
"~. c LightGray",
"^. c gray83",
"/. c #D5D5D5",
"(. c gray84",
"). c #D7D7D7",
"_. c #D8D8D8",
"`. c gray85",
"'. c #DADADA",
"]. c gray86",
"[. c gainsboro",
"{. c #DDDDDD",
"}. c gray87",
"|. c #DFDFDF",
" X c gray88",
".X c #E1E1E1",
"XX c #E2E2E2",
"oX c gray89",
"OX c #E4E4E4",
"+X c gray90",
"@X c #E6E6E6",
"#X c #E7E7E7",
"$X c gray91",
"%X c #E9E9E9",
"&X c #EAEAEA",
"*X c gray92",
"=X c #ECECEC",
"-X c gray93",
";X c #EEEEEE",
":X c #EFEFEF",
">X c gray94",
",X c #F1F1F1",
"<X c gray95",
"1X c #F3F3F3",
"2X c #F4F4F4",
"3X c gray96",
"4X c #F6F6F6",
"5X c gray97",
"6X c #F8F8F8",
"7X c #F9F9F9",
"8X c gray98",
"9X c #FBFBFB",
"0X c gray99",
"qX c #FDFDFD",
"wX c #FEFEFE",
"eX c white",
/* pixels */
"0X0X0X0X0X0X9X:XL.M.<.o.' ~ v     + L <.u.T.[.0X0X0X9X0X0X9X0X0X0X3X0X0X9X0X0X0X0X0X0X0X0X0X0X0X0X0X",
"0X3X0X0X1XM.~   + b %.p.h.B.[.@X[.'.T.h.2.Y r M 8.L.9X3X0X0X1X9X0X0X0X0X0X0X0X0X0X0X0X0X0X0X0X0X0X0X",
"0X0X0Xj.  $ o.L.3X0X0X0X0X0X0X9X0X9X0X0X9X0X:XK.8.r $ ;.[.9X0X0X0X0X0X0X0X0X9X9X0X0X0X0X0X0X0X0X0X0X",
"0X[.~   V [.0X0X3X0X0X0X0X0X0X0X0X0X3X9X0X0X0X0X0X0X^.o.  M W.0X0X3X0X0X0X0X0X0X0X0X0X0X0X0X0X0X0X0X",
"&Xk     K.3X[.@X1X1X&X&X3X9X9X0X0X0X0X0X0X9X9X0X0X0X0X0X1X<.$ } 1X0X0X9X0X0X0X0X0X0X0X0X0X0X0X0X0X0X",
"7.+ G M Y a r 2     , 8 a k v G L o.~ E @.<.%.2.d.d.h.j.T.K.v $ S H.[.1X9X[.1X1X1X3X9X9X0X0X0X0X9X0X",
"  V 1X0X1X:X&X3X9X&X:XXX^.'.'.'.L.H.L.T.B.j.h.d.;.o.~ Y a 8 g 6     $ r s r 8 , a k V E o.<.e.d.B.^.",
"  [ 0X0X0X0X0X9XH.W.9X0X0X0X0X0X0X0X@XK.:X0X9X0X0X0X0X0X3X9X9X^.g   ;.:X&X&XXX&X^.W.T.H.c.p.e.8.2.M.",
"o.  @X3X0X0X0X;.  + [.0X0X9X3X0X9X9X      &X0X0X0X9X0X9X0X0X0X0X~ + @.9X0X0X0X0X0X0X0X0X0X0X0X0X0X0X",
"L.  %.0X0X0X9X%.+   c.9X0X0X9X0X0X3X[ +   H.0X0X3X0X9X0X9X0X0X'.2   8.0X0X3X0X0X0X0X0X0X0X0X0X0X0X0X",
"0Xo.  7.0X0X0X9Xh.e.[.0X0X'.d.Z.3X3X@X} 8 T.0X3X0X3X0X0X0X9X0X7.    3X0X0X0X0X9X0X0X0X0X0X0X0X0X0X0X",
"0X1Xg   e.0X1X0X0X0X9X0X9X/   / 0X0X0X3X9X0X0X0X0X0X0X0X3X1X;.  $ T.0X3X0X0X0X0X0X0X0X0X0X0X0X0X0X0X",
"3X0X'.i   2.0X0X1X0X0X9X0X9X:X3X9X9X9X0X0X9X0X3X3X0X0X0XW.V   V ^.9X1X0X0X0X0X9X0X0X0X0X0X0X0X0X0X0X",
"0X3X0X:XG   [ ^.0X0X0X9X0X9X9X3X0X0X0X0X9X0X0X0X1XXXh.V   8 B.1X0X0X0X9X0X9X0X9X0X0X0X0X0X0X0X0X0X0X",
"0X0X9X9X9XZ.g $ / 8.L.[.XX@X1X@X&XW.[.B.c.p.2.V   + + @.H.1X3X0X9X0X1X0X0X0X9X0X0X0X0X0X0X0X0X0X0X0X",
"0X0X0X0X0X0X0XXXc.2.E S M b a i       V ' ;.e.Z.W.XX9X0X0X0X9X0X0X0X0X0X9X0X0X0X0X0X0X0X0X0X0X0X0X0X",
"0X0X0X0X0X0X0X0X0X0X0X0X1X1X:X1XG $ o.9X0X0X0X0X0X0X0X0X9X0X0X0X0X0X0X0X0X0X0X0X0X0X0X0X0X0X0X0X0X0X",
"0X0X0X0X0X0X0X0X9X0X0X0X0X0X9X0XE   } 0X3X9X0X0X0X0X0X0X0X0X0X0X0X0X0X0X0X0X0X0X0X0X0X0X0X0X0X0X0X0X",
"0X0X0X0X0X0X0X0X0X0X0X0X0X0X0X0X[ + V 3X0X0X0X3X0X0X0X0X0X0X0X0X0X0X0X0X0X0X0X0X0X0X0X0X0X0X0X0X0X0X",
"0X0X0X0X0X0X0X0X0X0X0X0X0X0X0X0Xu.  2 XX0X0X0X0X0X0X0X0X0X0X0X0X0X0X0X0X0X0X0X0X0X0X0X0X0X0X0X0X0X0X",
"0X0X0X0X0X0X0X0X0X0X0X0X0X0X0X0XW.    L.0X0X3X0X0X0X0X0X0X0X0X0X0X0X0X0X0X0X0X0X0X0X0X0X0X0X0X0X0X0X",
"0X0X0X0X0X0X0X0X0X0X0X0X0X0X0X0XXXM   e.0X0X0X0X0X0X0X0X0X0X0X0X0X0X0X0X0X0X0X0X0X0X0X0X0X0X0X0X0X0X",
"0X0X0X0X0X9X3X1X1X1X1X3X9X0X0X9X0X@.  L T.&X9X3X9X0X0X9X1X3X3X1X9X9X0X0X0X0X0X0X0X9X9X9X0X0X0X0X0X0X",
"0X0X0X0X3X1X:X:X3X3X3X9X3X:XW.Z.<.  2 8   $ s ;.B.'.1X9X9X9X3X1X1X1X1X3X3X3X1X3X3X1X1X:X3X3X0X0X0X0X",
"0X0X0X3X0X9X0X1X3X[.B.p.~ +   + L E - i ' K.j.<.M   Y %.p.K.@X:X3X0X1X0X1X9X1X1X:X3X1X3X3X1X9X0X0X0X",
"0X3X0X0X1XW.p.@.: +   V 8.Z.[.@X0XB.  $ e.0X0X3X9X@XW.8.[ s $ 6 Y 7.j.T.XX:X0X3X0X0X0X0X9X0X0X0X0X0X",
"3XW.d.'       ' j.T.XX0X0X0X0X0X0X^.    %.1X0X0X9X0X9X0X0X9XT.H.d./ 2       E u.L.^.0X0X3X0X0X0X0X0X",
"[.[ o.<.c.'.1X0X0X0X0X0X0X0X0X9X3X1X, + E 3X9X0X0X0X1X0X1X0X0X0X9X0X3X'.'.c.2.k   b ^.0X0X0X0X0X0X0X",
"0X0X0X1X0X0X0X0X9X9X9X9X0X0X0X0X0X9XY   v 1X0X9X9X0X0X0X9X0X3X9X0X0X0X0X0X0X0X0X0X:X0X0X3X0X0X9X0X0X",
"3X9X9X0X:X9X0X9X0X0X0X9X0X0X0X0X0X9X2.+ 2 &X0X0X0X0X0X9X0X0X0X0X0X3X9X9X0X0X9X0X0X9X0X0X9X0X0X0X0X0X",
"0X0X0X0X0X3X0X0X9X0X0X0X0X0X0X0X0X9X2.    @X9X0X0X0X0X0X0X0X9X0X0X0X0X0X0X0X0X0X0X0X0X0X0X0X0X0X0X0X",
"0X0X9X0X0X0X0X0X0X0X0X0X0X0X0X0X0X0Xc.  + W.0X0X0X0X0X0X0X0X0X0X0X0X0X0X0X0X0X0X0X0X0X0X0X0X0X0X0X0X",
"0X0X0X0X0X0X0X0X0X0X0X0X0X0X3X0X9X0XL.  + Z.3X0X0X9X0X0X0X0X0X0X0X0X0X0X0X0X0X0X0X0X0X0X0X0X0X0X0X0X",
"0X0X0X0X0X0X0X0X0X0X0X0X0X0X0X9X0X:XH.    G XX0X9X0X0X0X0X0X0X0X0X0X0X0X0X0X0X0X0X0X0X0X0X0X0X0X0X0X",
"0X0X0X0X0X0X0X0X0X0X0X0X0X0X3X0X0X[.i $ ;.V   2.3X0X0X0X0X0X0X0X0X0X0X0X0X0X0X0X0X0X0X0X0X0X0X0X0X0X",
"0X0X0X0X0X0X0X0X0X0X0X0X0X0X0X0X^.  $ p.0XXXE + [ 3X0X3X0X0X0X0X0X0X0X0X0X0X0X0X0X0X0X0X0X0X0X0X0X0X",
"0X0X0X0X0X0X0X0X9X0X9X0X0X9X9XB.  + B.0X0X0X9X@.  [ 1X0X9X0X3X0X0X0X0X0X0X0X0X0X0X0X0X0X0X0X0X0X0X0X",
"0X0X0X0X0X0X0X0X0X0X0X0X0X3X2.+ k '.0X0X0X0X3X0Xu.  v ^.0X0X9X0X0X0X0X0X0X0X0X0X0X0X0X0X0X0X0X0X0X0X",
"0X0X0X0X0X0X0X0X0X3X0X9X'.V   ;.9X0X1X0X0X9X0X0X3XZ.+ + c.9X0X0X0X0X0X0X0X0X0X0X0X0X0X0X0X0X0X0X0X0X",
"0X0X0X0X0X0X0X0X0X0X0XM.    M.0X0X0X0X0X0X0X0X0X0X9X'.Y   Y [.9X0X0X0X0X0X0X0X0X0X0X0X0X0X0X0X0X0X0X",
"0X9X0X0X0X0X9X0X0X9Xu.  $ L.0X0X0X0X0X0X0X0X0X0X0X0X0X0XZ.8   %.[.0X0X0X0X0X3X0X0X0X0X0X0X0X0X0X0X0X",
"3X0X0X0X0X0X0X3X0X<.  , [.0X0X0X0X0X0X0X0X0X0X0X0X1X0X0X1X9Xj.= + ;.L.0X9X0X0X0X0X0X0X0X0X0X0X0X0X0X",
"0X0X0X0X0X0X3X0X<.$ $ W.3X0X0X0X0X0X0X0X0X0X0X0X0X0X0X0X0X0X0X3Xc.$ + / XX9X0X3X0X0X0X0X0X0X0X0X0X0X",
"0X0X0X9X0X0X0Xp.    M.3X0X0X0X0X0X0X0X0X0X0X0X0X0X0X0X0X0X0X0X0X0X[.7.    d.:X0X0X0X0X0X0X0X0X0X0X0X",
"0X9X0X0X1X9XM.  + B.9X0X0X0X0X0X0X0X0X0X0X0X0X0X0X3X9X0X0X0X0X0X9X0X0XH.,   V T.9X0X0X0X0X0X0X0X0X0X",
"0X0X0X0X9Xe.    B.9X0X0X0X0X0X9X0X0X0X0X0X0X0X0X0X0X0X9X0X0X0X0X0X9X9X0X:X} +   M.1X0X0X9X0X0X0X0X0X",
"0X0X9XB.M   S ^.0X0X0X0X0X3X0X0X0X0X0X0X0X0X0X0X9X9X0X0X0X0X0X0X9X0X9X0X9X3X/ $   2.0X0X0X0X0X0X0X0X",
"0X0X'.- v j.3X0X0X0X0X0X0X0X0X0X0X0X0X0X0X0X0X0X0X0X0X0X0X0X0X0X0X0X9X9X0X0X0X^.L.3X0X0X0X0X0X0X0X0X",
"0XXX[.&X[.3X&X:X:X@XXX@X&X1X&X@X'.@XXX&X:XXX&X0X3X:X:X1X@X9X0X0X1X:X:X&X:XXX&XXX:XXXXXXX[.@X&X@X'.0X",
"9X'.^.:X[.&XW.^.[.^.^.W.'.[.^.W.[.@X[.[.[.W.'.&X[.'.'.[.W.&X3X1X[.^.^.W.[.^.[.W.[.W.^.'.^.XX&XXX'.0X"
};
