/* XPM */
static char *ba5a596e000640bdaacf3b8ea801a5455XvKGQ09N9CcxIA3[] = {
/* columns rows colors chars-per-pixel */
"50 50 256 2 ",
"   c #79625A",
".  c #9B492D",
"X  c #8D4F38",
"o  c #A34D2E",
"O  c #A95A3A",
"+  c #BC5C36",
"@  c #B75B38",
"#  c #BD582E",
"$  c #B8653D",
"%  c #DA581C",
"&  c #D75309",
"*  c #E55D1A",
"=  c #E95C05",
"-  c #EB6905",
";  c #EB641C",
":  c #E8681A",
">  c #F36617",
",  c #ED7712",
"<  c #C55A2D",
"1  c #DB5D24",
"2  c #D55C28",
"3  c #C95D35",
"4  c #D75E33",
"5  c #E25E25",
"6  c #E65E2A",
"7  c #DE6125",
"8  c #DC632D",
"9  c #D9672C",
"0  c #C5633C",
"q  c #C96539",
"w  c #D46434",
"e  c #DC6533",
"r  c #DD6B34",
"t  c #D4643D",
"y  c #DC6C3C",
"u  c #D8673A",
"i  c #DB743D",
"p  c #DC7638",
"a  c #D86F2C",
"s  c #E36323",
"d  c #EA6424",
"f  c #EB6C24",
"g  c #E3642C",
"h  c #EA652C",
"j  c #E46B2D",
"k  c #EB6B2C",
"l  c #E36925",
"z  c #F16C2C",
"x  c #F26B26",
"c  c #EC732D",
"v  c #EA7728",
"b  c #F3722D",
"n  c #F47827",
"m  c #E36533",
"M  c #E96633",
"N  c #E46B34",
"B  c #EB6C33",
"V  c #E46C3A",
"C  c #EB6D3A",
"Z  c #E2663A",
"A  c #F16C33",
"S  c #F16E38",
"D  c #E57434",
"F  c #EC7334",
"G  c #EC7B34",
"H  c #E4733C",
"J  c #EB733B",
"K  c #E57A3B",
"L  c #ED7B3C",
"P  c #E57A35",
"I  c #F27433",
"U  c #F27C35",
"Y  c #F1743B",
"T  c #F17B3B",
"R  c #FA7D33",
"E  c #DE6919",
"W  c #9B5D49",
"Q  c #895F4E",
"!  c #A45C44",
"~  c #A95C43",
"^  c #BE5A42",
"/  c #9B644C",
"(  c #9A6956",
")  c #9D715C",
"_  c #866057",
"`  c #A56146",
"'  c #AD6343",
"]  c #A7654C",
"[  c #B56343",
"{  c #BC6543",
"}  c #BB6944",
"|  c #B3654A",
" . c #BB6B4C",
".. c #B76849",
"X. c #BC724C",
"o. c #A46A53",
"O. c #AC6C54",
"+. c #A76957",
"@. c #B26C53",
"#. c #BB6D53",
"$. c #B36D5B",
"%. c #A4735C",
"&. c #AC7258",
"*. c #B47254",
"=. c #BC7155",
"-. c #B4735A",
";. c #BC745A",
":. c #BA795C",
">. c #B87958",
",. c #896D62",
"<. c #997667",
"1. c #927970",
"2. c #A77767",
"3. c #B47B64",
"4. c #B47C6A",
"5. c #BB7A65",
"6. c #A77B70",
"7. c #C36543",
"8. c #C16B45",
"9. c #C36C4B",
"0. c #C96A46",
"q. c #DD6D43",
"w. c #D66B44",
"e. c #C3724D",
"r. c #CB734D",
"t. c #CA7647",
"y. c #D57242",
"u. c #DC7443",
"i. c #DC7C44",
"p. c #D4754C",
"a. c #DC734B",
"s. c #DC7C4C",
"d. c #D67A4C",
"f. c #C66E54",
"g. c #C47254",
"h. c #CB7452",
"j. c #C57A5E",
"k. c #CB7B5B",
"l. c #C57858",
"z. c #D37C5C",
"x. c #D77954",
"c. c #E36D42",
"v. c #EA6F43",
"b. c #E47444",
"n. c #EA7443",
"m. c #E47B43",
"M. c #EB7B44",
"N. c #E3754A",
"B. c #E57B4B",
"V. c #EB7C4A",
"C. c #EA774B",
"Z. c #F27D45",
"A. c #F37D49",
"S. c #E57B52",
"D. c #E47952",
"F. c #F07C53",
"G. c #C57B65",
"H. c #C77D6A",
"J. c #EC833C",
"K. c #EA8338",
"L. c #F2833C",
"P. c #F88736",
"I. c #F1812C",
"U. c #F68215",
"Y. c #988072",
"T. c #AB816B",
"R. c #B3826A",
"E. c #BC836C",
"W. c #BD8266",
"Q. c #A88677",
"!. c #B88978",
"~. c #B9917C",
"^. c #AE917F",
"/. c #B8825C",
"(. c #DC824C",
"). c #DA8549",
"_. c #CB835D",
"`. c #CB8258",
"'. c #DC8254",
"]. c #D4835B",
"[. c #DD835B",
"{. c #D98757",
"}. c #ED8343",
"|. c #ED8A45",
" X c #E3834D",
".X c #EC834B",
"XX c #ED8C4C",
"oX c #E28244",
"OX c #F28243",
"+X c #F38B44",
"@X c #F28C4C",
"#X c #F5864A",
"$X c #E28453",
"%X c #EC8452",
"&X c #EC8A53",
"*X c #E3845C",
"=X c #E9895A",
"-X c #F28954",
";X c #EA9356",
":X c #F3925A",
">X c #F1914D",
",X c #CB8363",
"<X c #C88668",
"1X c #D28263",
"2X c #DD8C64",
"3X c #D38B6C",
"4X c #DB8B6C",
"5X c #D68567",
"6X c #D8926B",
"7X c #C38C75",
"8X c #C88B78",
"9X c #D58C72",
"0X c #D78A74",
"qX c #CB927B",
"wX c #C79379",
"eX c #D69679",
"rX c #E28B6A",
"tX c #E68A64",
"yX c #E4926A",
"uX c #EB9364",
"iX c #E39A75",
"pX c #E49B7B",
"aX c #E89776",
"sX c #ED8E72",
"dX c #E4A17C",
"fX c #CEA07F",
"gX c #A58983",
"hX c #B88E84",
"jX c #B59384",
"kX c #BC9485",
"lX c #BB9A8C",
"zX c #B89789",
"xX c #B99D93",
"cX c #A89992",
"vX c #BAA395",
"bX c #A6A29C",
"nX c #B8AAA5",
"mX c #BBB4AA",
"MX c #CC9481",
"NX c #C39C8B",
"BX c #C99A87",
"VX c #D79B84",
"CX c #C69E92",
"ZX c #D29789",
"AX c #E79F84",
"SX c #C9A38D",
"DX c #D9A288",
"FX c #C4A394",
"GX c #C8A698",
"HX c #D7AA96",
"JX c #E4A183",
"KX c #E7A687",
"LX c #E7B09B",
"PX c #C7ACA4",
"IX c #C8B2A8",
"UX c #D0B5AA",
/* pixels */
"G.k.MX,Xe.e.q 1.3.< 7.8.wX,X9.7.l.4.Q.{ @ 3 r.t.# 3 g.r.hXqX5X9X4XpXAX6XeXAXxXqX5XVX9XMX3Xf.5Xz.ZXIX",
"b.B.b.C.C n.: gXqX% q.w.u.V.r Z J z.vXr g a 8 8 t u c.M !.rXB J V l 9 C.S.H MXeXs q.H m e 4 q.* CXIX",
"a.i q.p V V ; Y.H.1 w.4 u M 2 t V w.~.Z 9 w w w e 4 3 & !.yXc H b.J n.D V M.NX9X: m Z Z 4 m m g MXGX",
"a.N.H 2X[.V.i gX<X& 4 2 e u e u N ^ jX9 w w a 9 3 & f.H.Q.5Xp s.i.p s.p.r 5XbXH.w 7.0 < < 0 { q 5.zX",
"*.R.Q.4.:.*.-.hX8X| [ O o.0 + ..X.>.8X} $ $ o...$ $ X.4.FXwXW.~.cXzXW.<XkX~.lXvXhXcXbXcXNX4.4.!.hXNX",
" XqXkXM k.u.M.L l b.b.u ,X.XJ H M.:X>X$XoXP._.$XK.|.J.#XLX:XOXyXIXHXG L .XN.%XS.D.ZXUXHXtXD.S.V.sXrX",
"G p.5.a q i H K y y y H X.oXF L M.|.|.J.P n <X{.K.P L , JXdXv G CXVXf F f Z g s 7 = <XHXk N M g D.5X",
"K ].W.j 8 r V j 9 V p j 8.L.G P.L.L.L.}.J.+X<X$XK.J.K.P L.KX&XK.NXVXP K n.i.m.H $XH 5XHXC.V u.B.[.D.",
":.3.Q.e.$ [ } @. .8.}  .R.3X`._.`.`.`.`.).`.~._.t.`._.<XwXSX~.~.xXUXNXFXNXGXBXNXBXqXSXGX<XW.!.wX7XjX",
"k.].0Xp.w.r.'.Q.kX).).2XDXpX6X6X6X<XT.{.).oX{.6X$X{.{. XvXHXeXDXJXKXDXKXKXKXGXPXJX9XyXrX'.2XdXeXVXnX",
"H J j D P P G ^.DXP..X@X;X>X>X:X>X;X~.+XK.|.+XXXL.L |.I.NXDXn L.OXV.}.OXXXL.8XqXK.P L F U K }..Xs.BX",
"F V D D P P OX^.VX+XXX#XXX@X|.|.L.).~.>X|.|.+XOXJ.@X>XK.BXdXn }.}.L.L.+XOXI.,X8Xn OXK.L n n U v G !.",
"i a r i.u.i.[.bXHXK '.$XB.s.).{.).d.^.oX).). X(.).).).p ~.fXoX(.$X(.[.$Xs.$XkXNXp ].`.y.`.,X`.`.l.gX",
"~.gXkX7XMXMX<XZXDX8X<X,X!.].,X].{._.DXSXfXSXjX_.k.].z.5X6XeXeX7X^.wXeXSXHXDXfXHXGX6XGXSXeXeXqXHXBXz.",
"M.CX3XU b.H n.G G L U m.eXJ.|.>X|.;X>XuX:XyXeX:X%X&X#X#X.X=X=X=XFXyXm.yX*XK J.M.&XD VXdXx j J m.V.B ",
"F !.H.k y H H J n.M.U *XwX>X}.XX|.>X>X;X+X[.eX+X&XXX@XXX-X&XM.}.eXH j D F }.oXG G : qXuXn B l j d H ",
": 4.<X- a j j f j v P ZXlXK.K.|.K.K.K.;XJ.).BXJ.}. Xi.}.K oXm.u.MXi a D D v D K p : <X[.H y.u r u z.",
"8XgXlXH.7X7X7XE.wXwXlXnXvXkX~.zXzXjXSXSXSXlXIXFXkXzXvXxXGXvXzXlXPXFXlXNXjXxXzX~.!.Q.cXxXhX~.zXzXxXlX",
"MX0X0X3X9XeXtXkXHXdXJXJXKXKXJXKXdXDXIXiXJXiXpXiX6XiXdXdXPXpX0XrXtX4X0XrX0XeXDX;X=XtXsXtX=X=XtX5XPXx.",
"N.v.F F L F - 8XiX, L.P.P.P.+X+XP.;XeX, v I., - v I.U.G eXv : : : : : , > : x.P.J.U v G G F : ; qX& ",
"N.m.C.M.V.S.T MXKXU }.&X#XXXXX@XP.yXDXG m.}.+XZ.OX.X#X.XeXZ.V L M.L Y T J.M.4XOXT L.}.#X.XOXL V SXm.",
"a.i r V i u.D wXDXJ. X}.=XyX=XuX>X2XSXK (. XK s.(.2X;X9XNX).a.(.(.z.'.'. X[.qX[.].2X{.h._.,X].H.nX].",
"<.gXlXhXlXvXnXUXmXzXvXvXvXlXNXNXlXFXIX^.hXvXnXNXBXGXGXSXUXCXSXmXPXBXMXqXqXMXDX8X9XZXxX,XH.G.G.H.eXG.",
"tXcXaXtXAXsXpXsXtXsXuXGXDXN.2X4X2XrXtXD.N.kXHX-XT .X-XR T Z.R 0XG.x k z k b x I n y 7Xc h : * > = : ",
"C.6.x.b.$XB.b.V V H k @.5.Z q.c.m e m Z h #.wXb L T T L L T Y u -.S C J Y L T L I u.;.k F B k B B B ",
"Z.6.x.L n.n.F..XZ.n.Z.G.f.g N.c.n.N.c.b.B $.qXI L T L G L n.b w.=.z B A B x B C n i ;.c C g g 5 l d ",
"8.,.;.[ } } 9.=.=.{ q 2.%.| O.X. .=.@.#.7.%.Q.0.e.e.r.=.,Xl.r.;.4.e.} 9.f.g.9. .^ @.6.;.O.' +.O.@.{ ",
"@ @.j.:.*.[ ..1.G.e.l.<X3X,X,X,Xk.T.<Xp.h.,X].u.p.a.s.4.3X'.].4X2X[.x.'.1X~.z.a.y p.x.w.t u.q.4.h.t ",
"m m j H N g V 6.F.n..X=X-X.X%X#X.X4.F.B J J Y n.Y T T l.n.T V..XM.n.OXK J 3XZ.x M B h h h h x l.Z 6 ",
"8 8 m j g g w 6.B.b.V.A.F.A.M.-X#X4.D.A J H Y J M.L Z.l.m.M.n.V.M.b.L n.H 8Xb.h C J Y C A M z f.y 6 ",
"8 7 8 m r g 7 1.B.H m.V.N.B.m.B.N.<.G.V p a r i i y d.*.q y.r.s.u.x.d.d.y.!.l.3 3 $ 4 3 < 2 4 %.7.@ ",
"` / ` ~ ` ` ` T.4.] ~ Q o.~ ] o.' -.>. .X.<.2.@.O.&.&.4.4.*.-.Q.hXW.R.3.*.7X7XO.-.Q.Q.-.2.4.-.E.<X3.",
"7.2.V u c.w.c.N.2XS.q.2.*XH %XV.Z.A.Z..XZ.E.yXU Z.#X#X#X+XZ.P.z.9XI }.+XY b T L R s.MXJ C n.v.z C J ",
"7.$.M g m m m 8 m Z 6 %.N.V N.J n.J M.m.T -.s.I M.L L L n.n.R h.j.f F F B J G I b u 4.B M M M N N M ",
"3 $.g 5 g 6 d g 6 M * ( C.A I A B z A L z #.x.x F I I I R U n x.l.> B f k f : f : u E.d g h m B d B ",
"` Q.q ^ ..7.f.7...9.O 6.l.+ 7.8.#.9...9. .1.<X .=.e.e.X.=.9.9.2.!.q  .8.9.e.>. .8.' Q.;.....[ { | [ ",
"f.,Xe. .h.t. .1.;.#.f.5Xz. .g.h.5.1.G.f.j.1X3Xg.j.j.h.6.E.r.f.H.5Xg.h.f.p.4.BXp.p.p.eX<Xt w.t g.4.q ",
"l s g l * v.w.+.g g B 6 g h M M 6 ( q.k M m h V B M z #.x.> h B k M B h x x.z.> F I Z.L ; d > e g.* ",
"j N l C 7 D.5.~ 6 1 6 m m 6 N M 6 W u m C c.N V V V S | 0.h M N v.Z V m h p.G.x k C b k h h z e | s ",
"k s 1 E 7 s 0 +.% 1 5 8 5 5 g g 2 ( y s Z h e e r g g O.f.5 Z u 8 e e 8 * 0.H.d r k 9 m s 2 : 0 ] 2 ",
"o.o./ W / o.) Q.%.W ( ( / / ( ] o.1.R./ +.) %.] ] ( o.<.!.! W ( <.%.%.<.%.2.^.%.&.<.) O.O.O.-.%.2.%.",
"| 3.y w.q.w.a.a.q.c.a.Q.N.q.a.q.N.N.C.C.a.Q.z.M N.D.D.J b.N.C 3.3Xn.S.$XB.C.&XB.OXl.z.J H V e V V n.",
"# ..1 8 8 g 8 8 1 g e %.g M g m M N m B 1 2.q.g m N M Z e V h @.x.f D J H D G L n r.k.s 8 6 s 8 8 4 ",
"+ f.6 g g m g g M h y $.B C M M B M C C B 2.c.h C M C S Y C k $.S.b U L T L J.T R h.x.> h 6 * s h 5 ",
"! O.< 3 3 3 $ 3 3 q 3 %.t q q 3 0.0.t q 3 <.f.q 0 0.0.7.7.7.< ( :.q $ $ 8.$ t. .$ ( -.3 @ @ @ { @ + ",
"! -.} ~ [ 7.o.%...=...;.=...|  .+.) [ { ..5.,X-.=.;.>.<.-.| @.-.G.@.*.*.-.1.3. . .;.G.g.} { } 2.3.=.",
"2 8 g s 1 1 0 f.h y C N N V C Y q.@.h g m m m M g z r %.v.M C C M C C Y A -.V.> I F k A h 6 > f.a.g ",
"2 % 2 1 1 % @ { 5 8 e g g m N B 3 ] 5 1 s 5 * 5 * s 7 ] V 6 u m m Z g N 5 +.q.s N B l g 5 g * [ 3 * ",
"% % % 2 % * # 7.d j C k m B B Y u &.; 5 d * d h d ; s +.M M B C B A v.C h ] m f F f M N d * = { t % ",
". . . . o o W 2.O ~ ' [ ~ [ O | o.,.O ! ! ! O O @ O O ,.o.! ~ ! ! ! ! ' O   +.! ! W ! O O W O _ Q X "
};
